# xmcd CD database file
#
# Track frame offsets:
#	150
#	19690
#	78450
#	103944
#	153476
#	198102
#	247251
#	256312
#	285353
#
# Disc length: 4500 seconds
#
# Revision: 0
# Processed by: cddbd v1.5.2PL0 Copyright (c) Steve Scherf et al.
# Submitted via: CDex 1.70beta2
#
DISCID=73119209
DTITLE=Miles Davis - Birdland Jam session
DYEAR=1950
DGENRE=Jazz
TTITLE0=Embraceable You
TTITLE1=Eronel
TTITLE2=52nd Street Theme
TTITLE3=Wee
TTITLE4=Hot House into 52nd Street Theme
TTITLE5=Conception
TTITLE6=Band Warming Up
TTITLE7=Max is Making Wax
TTITLE8=Ow!
EXTD=YEAR: 1950
EXTT0=
EXTT1=
EXTT2=
EXTT3=
EXTT4=
EXTT5=
EXTT6=
EXTT7=
EXTT8=
PLAYORDER=
